<?xml version="1.0" encoding="utf-8"?>
<!-- Generator: Adobe Illustrator 19.1.0, SVG Export Plug-In . SVG Version: 6.00 Build 0)  -->
<svg version="1.1" id="Layer_1" xmlns="http://www.w3.org/2000/svg" xmlns:xlink="http://www.w3.org/1999/xlink" x="0px" y="0px"
	 viewBox="-589 291.3 20.6 19.7" style="enable-background:new -589 291.3 20.6 19.7;" xml:space="preserve">
<style type="text/css">
	.st0{fill:#E84D37;}
	.st1{fill:#343434;}
</style>
<path class="st0" d="M-584.5,294.6h15.1l-1.4,10.2l-12.6-0.1L-584.5,294.6z"/>
<path class="st1" d="M-568.4,295.7l-1.2,8.9c-0.2,0.9-1,1.6-1.9,1.6h-10.9c-0.9,0-1.7-0.7-1.9-1.6l-1.5-10.3c-0.1-0.7-0.2-1-0.1-1.1
	h-2.1c-0.6,0-1-0.4-1-1c0-0.6,0.4-1,1-1h4c0.6,0,1,0.4,1,1c0,0.5-0.4,0.9-0.9,1h14C-568.8,293.3-568.2,294.4-568.4,295.7z
	 M-583.6,295.2l1.3,9h10.7c0,0,0,0,0,0l1.2-8.8c0,0,0-0.2,0-0.2H-583.6z M-581.8,307.2c1,0,1.9,0.8,1.9,1.9c0,1-0.8,1.9-1.9,1.9
	c-1,0-1.9-0.8-1.9-1.9C-583.6,308.1-582.8,307.2-581.8,307.2z M-572.8,307.2c1,0,1.9,0.8,1.9,1.9c0,1-0.8,1.9-1.9,1.9
	c-1,0-1.9-0.8-1.9-1.9C-574.6,308.1-573.8,307.2-572.8,307.2z"/>
</svg>
