<?xml version="1.0" encoding="utf-8"?>
<!-- Generator: Adobe Illustrator 19.1.0, SVG Export Plug-In . SVG Version: 6.00 Build 0)  -->
<svg version="1.1" id="Layer_1" xmlns="http://www.w3.org/2000/svg" xmlns:xlink="http://www.w3.org/1999/xlink" x="0px" y="0px"
	 viewBox="-469 271.3 20.6 19.7" style="enable-background:new -469 271.3 20.6 19.7;" xml:space="preserve">
<style type="text/css">
	.st0{fill:#E84D37;}
	.st1{fill:#343434;}
</style>
<path class="st0" d="M-464.5,274.6h15.1l-1.4,10.2l-12.6-0.1L-464.5,274.6z"/>
<path class="st1" d="M-448.4,275.7l-1.2,8.9c-0.2,0.9-1,1.6-1.9,1.6h-10.9c-0.9,0-1.7-0.7-1.9-1.6l-1.5-10.3c-0.1-0.7-0.2-1-0.1-1.1
	h-2.1c-0.6,0-1-0.4-1-1c0-0.6,0.4-1,1-1h4c0.6,0,1,0.4,1,1c0,0.5-0.4,0.9-0.9,1h14C-448.8,273.3-448.2,274.4-448.4,275.7z
	 M-463.6,275.2l1.3,9h10.7c0,0,0,0,0,0l1.2-8.8c0,0,0-0.2,0-0.2H-463.6z M-461.8,287.2c1,0,1.9,0.8,1.9,1.9c0,1-0.8,1.9-1.9,1.9
	s-1.9-0.8-1.9-1.9C-463.6,288.1-462.8,287.2-461.8,287.2z M-452.8,287.2c1,0,1.9,0.8,1.9,1.9c0,1-0.8,1.9-1.9,1.9s-1.9-0.8-1.9-1.9
	C-454.6,288.1-453.8,287.2-452.8,287.2z"/>
</svg>
