<?xml version="1.0" encoding="utf-8"?>
<!-- Generator: Adobe Illustrator 19.1.0, SVG Export Plug-In . SVG Version: 6.00 Build 0)  -->
<svg version="1.1" id="Layer_1" xmlns="http://www.w3.org/2000/svg" xmlns:xlink="http://www.w3.org/1999/xlink" x="0px" y="0px"
	 viewBox="-580 282.8 37.2 37.2" style="enable-background:new -580 282.8 37.2 37.2;" xml:space="preserve">
<style type="text/css">
	.st0{opacity:0.5;fill:#FFFFFF;enable-background:new    ;}
	.st1{opacity:0.8;fill:#FFFFFF;enable-background:new    ;}
</style>
<path class="st0" d="M-561.4,282.8c10.3,0,18.6,8.3,18.6,18.6c0,10.3-8.3,18.6-18.6,18.6s-18.6-8.3-18.6-18.6
	C-580,291.1-571.7,282.8-561.4,282.8z M-561.4,285.8c8.7,0,15.7,7,15.7,15.7s-7,15.7-15.7,15.7s-15.7-7-15.7-15.7
	C-577.1,292.8-570.1,285.8-561.4,285.8z"/>
<path class="st1" d="M-561.4,317.1c-8.7,0-15.7-7-15.7-15.7s7-15.7,15.7-15.7s15.7,7,15.7,15.7S-552.7,317.1-561.4,317.1z
	 M-557.5,291.8h-2.8c-3.3,0-4.1,1.5-4.1,4.3v2.2h-1.9v3.1h1.9v9.3h3.7v-9.3h2.7l0.3-3.1h-3v-1.9c0-0.9,0.1-1.3,1.4-1.3h1.8
	L-557.5,291.8L-557.5,291.8z"/>
</svg>
