<?xml version="1.0" encoding="utf-8"?>
<!-- Generator: Adobe Illustrator 19.1.0, SVG Export Plug-In . SVG Version: 6.00 Build 0)  -->
<svg version="1.1" id="Layer_1" xmlns="http://www.w3.org/2000/svg" xmlns:xlink="http://www.w3.org/1999/xlink" x="0px" y="0px"
	 viewBox="-580 282.8 37.2 37.2" style="enable-background:new -580 282.8 37.2 37.2;" xml:space="preserve">
<style type="text/css">
	.st0{opacity:0.5;fill:#FFFFFF;enable-background:new    ;}
	.st1{opacity:0.8;fill:#FFFFFF;enable-background:new    ;}
</style>
<path class="st0" d="M-561.4,282.8c10.3,0,18.6,8.3,18.6,18.6c0,10.3-8.3,18.6-18.6,18.6c-10.3,0-18.6-8.3-18.6-18.6
	C-580,291.1-571.7,282.8-561.4,282.8z M-561.4,285.8c8.7,0,15.7,7,15.7,15.7c0,8.7-7,15.7-15.7,15.7s-15.7-7-15.7-15.7
	C-577.1,292.8-570.1,285.8-561.4,285.8z"/>
<path class="st1" d="M-561.4,317.1c-8.7,0-15.7-7-15.7-15.7c0-8.7,7-15.7,15.7-15.7s15.7,7,15.7,15.7
	C-545.7,310.1-552.7,317.1-561.4,317.1z M-553.4,295.3c0-1-0.8-1.7-1.7-1.7h-12.3c-1,0-1.7,0.8-1.7,1.7v12.3c0,1,0.8,1.7,1.7,1.7
	h12.3c1,0,1.7-0.8,1.7-1.7V295.3z M-555.7,298.4h-1.9c-0.3,0-0.6-0.3-0.6-0.6v-1.9c0-0.3,0.3-0.6,0.6-0.6h1.9c0.3,0,0.6,0.3,0.6,0.6
	v1.9C-555.1,298.1-555.4,298.4-555.7,298.4z M-561.3,304.3c-1.6,0-2.8-1.3-2.8-2.8c0-1.6,1.3-2.8,2.8-2.8s3.1,1.1,3.1,2.8
	C-558.2,303.1-559.7,304.3-561.3,304.3z M-561.3,306.4c2.7,0,4.9-2.2,4.9-4.9c0-0.4-0.1-0.8-0.2-1.2c0.9,0,1.4,0,1.4,0v6.8
	c0,0.3-0.3,0.6-0.6,0.6h-11.1c-0.3,0-0.6-0.3-0.6-0.6v-6.8c0,0,0.3,0,1.4,0c-0.1,0.4-0.2,0.8-0.2,1.2
	C-566.2,304.2-564,306.4-561.3,306.4z"/>
</svg>
