<svg xmlns="http://www.w3.org/2000/svg" xmlns:xlink="http://www.w3.org/1999/xlink" preserveAspectRatio="xMidYMid" width="148.688" height="61.469" viewBox="0 0 148.688 61.469">
  <defs>
    <style>
      .cls-1 {
        fill: #fff;
        fill-rule: evenodd;
      }
    </style>
  </defs>
  <path d="M148.664,50.685 C148.228,57.262 143.081,61.467 136.148,61.467 C129.473,61.467 126.432,58.396 126.432,55.542 C126.432,53.967 127.644,52.789 128.841,52.439 C129.017,52.400 129.123,52.386 129.216,52.386 C129.492,52.386 129.648,52.511 129.732,52.617 C129.936,52.873 129.868,53.168 129.782,53.541 C129.757,53.646 129.730,53.767 129.701,53.908 C129.525,54.899 129.527,56.350 130.549,57.571 C131.677,58.918 133.813,59.631 136.724,59.631 C141.137,59.631 146.066,56.137 146.335,50.493 C146.532,45.857 144.249,42.607 140.454,41.986 C140.777,42.802 140.974,43.702 141.041,44.673 C141.207,47.185 140.569,49.383 139.245,50.863 C138.172,52.062 136.711,52.736 135.015,52.813 C133.588,52.884 132.431,52.401 131.606,51.458 C130.689,50.411 130.291,48.843 130.515,47.156 C130.939,43.850 133.098,41.279 136.234,40.266 C134.636,38.991 132.325,38.244 129.619,38.145 C126.469,38.019 123.728,38.672 121.428,40.058 C120.255,47.287 117.845,55.615 114.844,55.615 C114.224,55.615 113.645,55.231 113.216,54.533 C112.203,52.888 111.991,49.379 113.917,45.558 C115.355,42.727 117.005,40.647 118.959,39.205 C119.209,36.915 119.394,34.539 119.510,32.117 C118.550,33.341 117.415,34.031 116.254,34.065 C115.279,35.422 114.025,36.167 112.702,36.167 C111.555,36.167 110.497,35.696 109.639,34.803 C108.361,33.470 107.710,31.405 107.808,28.987 C107.971,25.091 109.564,22.172 112.072,21.179 C112.585,20.968 113.090,21.117 113.287,21.510 C113.835,20.875 114.516,20.435 115.337,20.287 C116.047,20.161 116.714,20.448 117.266,21.082 C118.417,22.402 118.862,24.942 118.457,27.878 C118.225,29.473 117.863,30.858 117.376,32.010 C118.284,31.343 119.164,29.628 119.649,27.447 C119.664,25.994 119.659,24.633 119.633,23.289 C119.603,22.264 119.937,21.699 120.222,21.405 C120.510,21.109 120.893,20.939 121.272,20.939 C122.325,20.939 122.376,21.547 122.376,22.621 C122.376,23.050 122.383,23.432 122.390,23.897 C122.394,24.120 122.398,24.366 122.402,24.644 C123.572,22.107 125.070,20.705 126.670,20.705 C127.384,20.705 128.036,21.005 128.557,21.547 C129.630,22.666 130.128,24.887 129.999,27.923 C129.728,33.424 126.600,35.935 123.621,35.935 C123.060,35.935 122.536,35.932 122.032,35.730 C121.977,36.389 121.909,37.241 121.829,37.891 C124.231,36.864 127.017,36.863 130.411,37.083 C134.359,37.322 137.292,39.415 139.131,41.357 L139.361,41.357 C142.056,41.357 144.471,41.576 146.164,43.378 C147.968,45.300 148.855,47.645 148.664,50.685 ZM116.391,45.665 C114.662,49.123 114.736,51.513 115.208,52.275 C115.293,52.414 115.385,52.490 115.480,52.501 C116.046,52.225 117.464,48.988 118.473,42.543 C117.660,43.477 116.962,44.522 116.391,45.665 ZM111.643,28.684 C111.455,26.893 111.635,24.981 112.206,23.428 C111.488,24.467 111.014,26.304 110.923,28.532 C110.826,30.494 111.294,32.215 112.172,33.137 C112.422,33.399 112.824,33.712 113.321,33.712 C113.592,33.712 113.876,33.627 114.155,33.464 C112.812,32.594 111.856,30.813 111.643,28.684 ZM115.741,23.566 C115.688,23.510 115.613,23.443 115.543,23.443 C114.719,23.680 113.683,25.789 113.806,28.241 C113.865,29.612 114.344,31.344 115.483,32.043 C115.902,31.277 116.345,30.017 116.462,28.031 C116.614,25.652 116.195,24.049 115.741,23.566 ZM123.580,33.960 C125.357,33.960 126.562,31.941 126.803,28.561 C127.009,25.415 126.609,23.788 126.166,23.315 C126.046,23.187 125.961,23.187 125.929,23.187 C125.306,23.187 123.311,25.983 122.288,32.583 L122.225,33.580 C122.561,33.838 122.998,33.960 123.580,33.960 ZM138.753,45.228 C138.681,44.006 138.351,42.916 137.769,41.982 C135.179,42.474 133.350,44.312 132.961,46.840 C132.749,48.106 132.951,49.183 133.527,49.876 C133.963,50.401 134.585,50.674 135.374,50.689 L135.477,50.691 C136.223,50.691 136.907,50.384 137.456,49.801 C138.393,48.806 138.867,47.139 138.753,45.228 ZM108.399,37.041 C108.355,37.255 108.136,37.792 106.959,37.647 C104.583,37.391 103.485,34.507 103.606,28.831 C103.635,27.452 103.754,26.305 103.849,25.383 C103.937,24.527 104.037,23.556 103.908,23.365 C103.201,23.401 100.462,27.065 99.463,33.693 C99.415,35.374 98.465,35.838 97.912,35.838 C96.904,35.838 96.725,35.408 96.725,34.198 C96.725,32.782 96.740,32.261 96.770,31.210 C96.790,30.515 96.815,29.587 96.848,28.007 C96.920,25.345 97.090,22.771 97.355,20.342 C96.016,20.570 94.562,20.584 93.106,20.381 C88.964,19.829 87.577,17.165 87.660,14.856 C87.762,13.387 89.045,12.551 89.883,12.342 C90.052,12.305 90.164,12.291 90.260,12.291 C90.561,12.291 90.717,12.445 90.785,12.537 C90.985,12.813 90.890,13.103 90.747,13.541 L90.668,13.784 C90.489,14.453 90.509,15.212 90.730,15.902 C90.849,16.167 91.105,16.542 91.539,16.542 C91.839,16.542 92.188,16.364 92.495,16.053 C93.146,15.394 93.526,14.278 93.512,13.066 C93.472,10.414 91.952,8.858 89.229,8.683 C89.054,8.672 88.879,8.666 88.705,8.666 C86.250,8.666 83.604,9.905 83.230,12.673 C82.756,16.293 85.801,18.137 89.024,20.089 L89.388,20.309 C92.710,22.360 96.230,24.928 95.966,29.489 C95.669,34.355 91.340,38.024 85.894,38.024 C85.219,38.024 84.535,37.965 83.863,37.851 C77.175,36.696 75.071,31.506 75.302,27.413 C75.404,25.940 75.872,23.878 77.520,22.384 C78.100,21.854 79.880,21.274 80.454,21.191 C81.157,21.089 81.339,21.392 81.413,21.562 C81.594,21.979 81.284,22.397 80.920,22.786 C79.012,24.654 78.174,26.122 77.915,28.041 C77.684,29.876 78.178,31.652 79.307,33.038 C80.482,34.480 82.274,35.364 84.353,35.528 C88.442,35.844 92.279,33.393 92.651,30.348 C93.110,26.637 90.265,24.395 87.053,22.240 L86.379,21.796 C83.018,19.587 79.543,17.304 79.917,13.385 C80.283,8.929 84.849,6.594 89.172,6.594 C89.290,6.594 89.407,6.596 89.523,6.600 C91.739,6.682 93.506,7.388 94.635,8.641 C95.648,9.764 96.124,11.276 96.008,13.009 C95.893,15.310 94.776,17.346 93.178,18.328 C93.450,18.426 93.739,18.503 94.042,18.557 C95.218,18.777 96.433,18.751 97.555,18.482 C98.724,9.900 101.165,4.375 103.804,4.375 C104.405,4.375 104.978,4.771 105.418,5.489 C106.557,7.347 106.786,11.045 105.019,14.517 C103.855,16.846 102.182,18.532 100.047,19.531 C99.783,21.626 99.633,23.883 99.599,26.260 C100.996,23.224 103.000,20.692 105.081,20.692 C105.577,20.692 105.983,20.859 106.288,21.188 C107.155,22.125 107.039,24.207 106.759,27.808 C106.240,34.134 106.950,35.759 107.636,36.009 C108.472,36.379 108.431,36.892 108.399,37.041 ZM102.751,14.326 C104.167,11.496 103.988,8.847 103.545,7.843 C103.414,7.549 103.293,7.456 103.261,7.447 C102.731,7.686 101.304,11.149 100.357,17.243 C101.337,16.527 102.140,15.549 102.751,14.326 ZM74.537,28.210 C71.691,49.487 68.972,51.949 67.175,51.949 C66.569,51.949 66.033,51.642 65.625,51.064 C64.569,49.564 64.544,46.527 65.564,43.676 C66.792,40.203 68.632,37.056 71.034,34.323 L71.062,34.053 C70.218,35.352 69.283,36.044 68.329,36.044 C67.370,36.044 65.748,35.564 64.852,32.607 C63.394,35.149 61.476,36.580 59.470,36.580 C57.453,36.580 55.677,35.323 54.697,33.287 C53.919,35.159 52.840,36.950 51.560,36.950 C50.509,36.950 49.702,35.714 49.329,33.633 C48.405,35.179 47.309,36.064 46.164,36.165 C46.105,36.170 46.052,36.172 45.999,36.172 C44.798,36.172 43.410,35.134 42.702,33.134 C41.522,35.274 40.183,36.476 38.937,36.476 C37.300,36.476 35.713,34.530 34.779,31.495 C33.736,34.028 32.125,36.456 30.335,36.456 C29.653,36.456 28.952,36.097 28.311,35.417 C26.833,33.852 25.228,29.953 25.565,24.116 C26.067,16.044 29.018,4.787 32.684,4.787 C32.962,4.787 33.365,4.878 33.711,5.313 C34.966,6.894 34.456,12.233 33.693,15.520 C32.668,19.704 30.437,24.642 28.728,27.441 C29.002,32.050 30.093,34.124 30.789,34.124 C31.533,34.124 33.151,31.534 34.009,27.468 C33.895,26.211 33.876,24.893 33.953,23.547 C34.480,15.081 37.569,3.276 41.403,3.276 C41.690,3.276 42.106,3.370 42.462,3.819 C43.776,5.473 43.239,11.068 42.439,14.513 C41.363,18.905 39.020,24.093 37.225,27.030 C37.513,31.889 38.673,34.077 39.413,34.077 C39.973,34.077 41.281,32.484 42.310,29.066 C42.946,23.182 46.383,21.104 49.129,21.104 C50.620,21.104 51.462,21.665 51.907,22.135 C52.473,22.736 52.756,23.562 52.704,24.462 C52.577,25.438 51.102,26.298 50.372,26.435 C49.847,26.547 49.591,26.336 49.501,26.208 C49.286,25.898 49.409,25.565 49.614,25.014 L49.663,24.883 C49.933,24.010 49.961,23.401 49.737,23.098 C49.579,22.883 49.250,22.775 48.759,22.775 C47.152,22.775 45.806,25.005 45.408,28.323 C45.104,30.793 45.663,32.706 46.311,33.440 C46.464,33.613 46.621,33.712 46.739,33.712 C47.529,33.712 48.609,32.136 49.146,29.125 L49.169,28.819 C49.189,28.552 49.208,28.304 49.269,27.971 C49.451,27.024 50.544,26.596 51.482,26.596 C51.891,26.596 52.165,26.684 52.323,26.864 L52.468,27.032 L52.454,27.302 C51.497,32.323 51.802,34.192 52.033,34.578 C52.312,34.326 53.019,33.149 53.880,29.780 C53.868,29.484 53.865,29.180 53.875,28.867 C54.120,23.968 56.684,20.280 59.841,20.280 C60.726,20.280 61.454,20.581 62.005,21.174 C63.093,22.349 63.045,24.213 63.004,24.757 C62.876,25.727 61.397,26.504 60.672,26.640 C60.078,26.771 59.881,26.556 59.795,26.431 C59.597,26.144 59.709,25.844 59.880,25.391 L59.963,25.171 C60.332,24.131 60.502,22.783 60.112,22.229 C60.027,22.110 59.869,21.951 59.470,21.951 C58.236,21.951 57.147,24.770 56.990,28.367 C56.919,30.484 57.457,32.352 58.433,33.360 C58.916,33.860 59.489,34.124 60.089,34.124 C62.416,34.124 63.707,31.132 64.283,29.283 C64.142,27.398 64.204,25.168 64.467,22.651 C64.593,21.551 66.000,21.143 66.856,21.143 C67.223,21.143 67.462,21.222 67.609,21.390 L67.755,21.558 L67.738,21.822 C66.921,28.312 67.032,32.204 68.069,33.381 C68.269,33.607 68.495,33.712 68.782,33.712 C69.580,33.712 71.085,30.899 71.720,25.815 C71.809,24.468 71.934,23.204 72.052,22.461 C72.175,21.397 73.564,20.993 74.410,20.993 C74.805,20.993 75.060,21.082 75.210,21.273 L75.355,21.460 L75.311,21.747 C75.316,21.747 74.984,25.119 74.537,28.210 ZM67.755,43.802 C66.800,46.371 66.944,47.982 67.397,48.633 C67.515,48.802 67.630,48.869 67.699,48.875 C68.246,48.655 69.437,45.520 70.521,38.061 C69.430,39.879 68.457,41.889 67.755,43.802 ZM31.471,15.622 C32.424,11.956 32.375,8.853 32.093,7.999 C31.088,9.350 29.092,17.403 28.742,23.391 C29.857,20.837 30.932,17.808 31.471,15.622 ZM40.153,14.634 C41.175,10.702 41.102,7.411 40.790,6.572 C39.733,7.892 37.582,16.535 37.233,22.917 C38.424,20.208 39.579,16.962 40.153,14.634 ZM9.818,17.184 C9.312,18.721 8.969,20.248 8.770,21.840 C8.208,26.425 9.012,30.451 10.922,32.611 C11.972,33.797 13.306,34.399 14.887,34.400 C14.887,34.400 14.887,34.400 14.887,34.400 C14.976,34.400 15.066,34.398 15.156,34.393 C19.186,34.196 20.547,30.070 21.000,27.628 L21.128,25.154 C21.204,23.091 22.475,22.931 22.862,22.931 C23.170,22.931 24.048,23.061 24.048,23.638 C23.605,30.036 22.961,35.019 22.081,38.872 C26.902,39.208 32.773,40.140 37.920,41.016 C42.197,41.737 47.064,42.473 50.723,42.473 C53.854,42.473 55.734,41.943 56.313,40.898 C56.430,40.699 56.499,40.549 56.551,40.438 C56.651,40.221 56.804,39.892 57.194,39.892 C57.433,39.892 57.615,40.028 57.845,40.200 C58.668,40.769 59.231,41.754 59.268,42.699 C59.290,43.277 59.135,44.114 58.268,44.818 C57.401,45.544 55.980,45.899 53.930,45.899 C50.367,45.899 45.466,44.856 40.278,43.752 C39.325,43.549 38.370,43.345 37.423,43.149 C31.137,41.865 25.804,41.112 21.565,40.909 C20.029,46.112 17.848,48.801 14.719,49.361 C14.407,49.412 14.093,49.438 13.779,49.438 C11.738,49.438 9.748,48.384 8.710,46.753 C7.871,45.436 7.775,43.930 8.437,42.513 C9.587,39.959 12.806,38.767 18.567,38.767 C18.904,38.767 19.249,38.771 19.600,38.778 C19.917,37.407 20.181,35.871 20.399,34.126 C18.886,35.698 16.960,36.573 14.747,36.677 L14.454,36.682 C11.991,36.682 9.838,35.734 8.230,33.942 C5.880,31.323 4.834,27.054 5.358,22.226 C5.569,20.287 5.968,18.492 6.547,16.879 C4.130,16.304 2.144,15.065 1.044,13.432 C0.069,11.984 -0.231,10.277 0.153,8.359 C1.428,1.984 9.610,0.004 12.446,0.004 C12.949,0.004 13.315,0.059 13.565,0.171 C13.931,0.346 14.883,0.798 14.725,1.498 C14.635,1.900 14.212,2.139 13.595,2.139 C13.292,2.139 12.971,2.080 12.693,1.974 C12.650,1.958 12.485,1.905 12.084,1.905 C10.003,1.905 3.674,3.462 2.783,8.227 C2.166,11.480 4.599,13.882 7.427,14.682 C9.927,9.378 14.386,5.607 18.877,5.027 C21.046,4.736 22.812,5.315 23.686,6.616 C24.381,7.653 24.450,9.051 23.875,10.452 C22.383,14.115 16.251,17.035 9.818,17.184 ZM11.919,42.839 C11.304,43.853 11.221,44.920 11.695,45.762 C12.139,46.550 12.985,47.021 13.959,47.021 C14.309,47.021 14.665,46.959 15.019,46.838 C16.690,46.237 18.050,44.240 19.062,40.898 C14.120,40.979 12.445,41.987 11.919,42.839 ZM20.521,7.913 C20.199,7.417 19.553,7.313 19.067,7.313 C18.818,7.313 18.545,7.340 18.255,7.392 C15.567,7.904 12.586,10.905 10.686,14.954 C14.527,14.650 19.133,12.725 20.404,10.059 C20.793,9.188 20.837,8.402 20.521,7.913 Z" class="cls-1"/>
</svg>
