<?xml version="1.0" encoding="utf-8"?>
<!-- Generator: Adobe Illustrator 19.1.0, SVG Export Plug-In . SVG Version: 6.00 Build 0)  -->
<svg version="1.1" id="Layer_1" xmlns="http://www.w3.org/2000/svg" xmlns:xlink="http://www.w3.org/1999/xlink" x="0px" y="0px"
	 viewBox="-580 282.8 37.2 37.2" style="enable-background:new -580 282.8 37.2 37.2;" xml:space="preserve">
<style type="text/css">
	.st0{opacity:0.5;fill:#FFFFFF;enable-background:new    ;}
	.st1{opacity:0.8;fill:#FFFFFF;enable-background:new    ;}
</style>
<path class="st0" d="M-561.4,282.8c10.3,0,18.6,8.3,18.6,18.6c0,10.3-8.3,18.6-18.6,18.6c-10.3,0-18.6-8.3-18.6-18.6
	C-580,291.1-571.7,282.8-561.4,282.8z M-561.4,285.7c8.7,0,15.7,7,15.7,15.7c0,8.7-7,15.7-15.7,15.7c-8.7,0-15.7-7-15.7-15.7
	C-577.1,292.7-570.1,285.7-561.4,285.7z"/>
<path class="st1" d="M-561.4,317.1c-8.7,0-15.7-7-15.7-15.7c0-8.7,7-15.7,15.7-15.7s15.7,7,15.7,15.7
	C-545.7,310.1-552.7,317.1-561.4,317.1z M-552.7,295.1c-0.7,0.4-1.5,0.7-2.3,0.9c-0.7-0.7-1.6-1.2-2.7-1.2c-2,0-3.6,1.6-3.6,3.6
	c0,0.3,0,0.6,0.1,0.8c-3-0.2-5.7-1.6-7.5-3.8c-0.3,0.5-0.5,1.2-0.5,1.8c0,1.3,0.6,2.4,1.6,3c-0.6,0-1.2-0.2-1.6-0.5c0,0,0,0,0,0
	c0,1.8,1.3,3.2,2.9,3.6c-0.3,0.1-0.6,0.1-1,0.1c-0.2,0-0.5,0-0.7-0.1c0.5,1.4,1.8,2.5,3.4,2.5c-1.2,1-2.8,1.6-4.5,1.6
	c-0.3,0-0.6,0-0.9-0.1c1.6,1,3.5,1.6,5.6,1.6c6.7,0,10.4-5.5,10.4-10.4c0-0.2,0-0.3,0-0.5c0.7-0.5,1.3-1.2,1.8-1.9
	c-0.7,0.3-1.4,0.5-2.1,0.6C-553.6,296.6-553,295.9-552.7,295.1z"/>
</svg>
